<svg xmlns="http://www.w3.org/2000/svg" viewBox="0 -960 960 960"><path d="M201.862-251.847v-319.335h72.805v319.335h-72.805Zm244.522 0v-319.335h72.565v319.335h-72.565ZM73.304-631.79v-73.079L480-926.804l406.855 221.935v73.079H73.305Zm165.818-75.913h481.756L480-840.442 239.122-707.703ZM73.304-115.565v-75.754H571.29q2 17.45 4.439 36.645 2.438 19.196 9.474 39.109H73.304Zm612.029-305.384v-150.233h72.805v113.711l-72.805 36.522ZM800 2.949Q729.884-14.37 683.746-77.786q-46.137-63.417-46.137-140.692v-103.355L800-402.949l162.391 81.116v103.355q0 77.275-46.137 140.692Q870.116-14.37 800 2.949Zm-23.906-122.71 142.834-142.5-32.906-32.906-109.928 109.501-54.725-54.725-32.746 33 87.471 87.63ZM239.122-707.703h481.756-481.756Z"/></svg>