<?xml version="1.0" standalone="no"?>
<svg version="1.0" xmlns="http://www.w3.org/2000/svg" width="512.000000pt" height="512.000000pt" viewBox="0 0 512.000000 512.000000" preserveAspectRatio="xMidYMid meet">
<g transform="translate(0.000000,512.000000) scale(0.100000,-0.100000)" fill="#fff" stroke="none">
<path d="M850 4478 c0 -53 299 -3460 304 -3465 8 -8 459 -133 463 -129 2 2 42
151 89 331 l86 328 -36 412 c-20 226 -36 426 -36 443 l0 32 153 0 152 0 88
338 c48 185 87 340 87 345 0 4 -121 7 -270 7 l-269 0 -5 33 c-5 32 -57 631
-56 655 0 9 86 12 395 12 l394 0 10 38 c5 20 44 166 85 324 42 158 76 295 76
303 0 13 -99 15 -855 15 l-855 0 0 -22z"/>
<path d="M2917 4493 c-3 -5 -42 -150 -87 -323 -44 -173 -83 -323 -86 -332 -5
-17 18 -18 385 -18 306 0 391 -3 391 -12 1 -24 -51 -623 -56 -655 l-5 -33
-453 0 -453 0 -86 -334 c-48 -183 -87 -339 -87 -345 0 -8 139 -11 510 -11 281
0 510 -3 510 -7 1 -40 -84 -870 -89 -875 -3 -4 -175 -53 -381 -109 l-375 -101
-210 56 c-115 31 -214 56 -220 56 -14 0 -181 -649 -169 -659 5 -4 144 -44 309
-89 l300 -82 697 193 c384 107 701 196 704 199 5 6 304 3411 304 3466 l0 22
-674 0 c-371 0 -677 -3 -679 -7z"/>
</g>
</svg>
