<svg xmlns="http://www.w3.org/2000/svg" viewBox="0 -960 960 960"><path d="M246.667-491.74h466.666v-66.666H246.667v66.666Zm0 160h306.666v-66.666H246.667v66.666Zm-97.609 178.436q-30.994 0-53.374-22.714-22.38-22.713-22.38-53.04v-501.884q0-30.393 22.38-53.153 22.38-22.76 53.374-22.76h261.993l69.616 69.775h330.275q30.393 0 53.153 22.713 22.76 22.713 22.76 53.04v432.269q0 30.327-22.76 53.04-22.76 22.714-53.153 22.714H149.058Zm0-75.754h661.884v-432.269H449.254l-69.616-69.615h-230.58v501.884Zm0 0v-501.884 501.884Z"/></svg>