<svg width="800" height="600" viewBox="0 0 800 600" fill="none" xmlns="http://www.w3.org/2000/svg">
<path d="M104 516.59H202L207 554.92H209.38L194.32 416.64C194.256 416.069 193.984 415.541 193.557 415.158C193.129 414.774 192.575 414.561 192 414.56H114.11C113.535 414.561 112.981 414.774 112.553 415.158C112.126 415.541 111.854 416.069 111.79 416.64L96.65 554.92H99L104 516.59ZM104.45 513.13L113.75 441.94H192.28L201.58 513.13H104.45Z" fill="white"/>
<path opacity="0.5" d="M104 516.59H202L207 554.92H209.38L194.32 416.64C194.256 416.069 193.984 415.541 193.557 415.158C193.129 414.774 192.575 414.561 192 414.56H114.11C113.535 414.561 112.981 414.774 112.553 415.158C112.126 415.541 111.854 416.069 111.79 416.64L96.65 554.92H99L104 516.59ZM104.45 513.13L113.75 441.94H192.28L201.58 513.13H104.45Z" fill="#542DED"/>
<path fill-rule="evenodd" clip-rule="evenodd" d="M251.47 30.71H524C526.071 30.71 528.058 31.5328 529.523 32.9975C530.987 34.4621 531.81 36.4487 531.81 38.52V312.52C531.802 314.586 530.976 316.565 529.512 318.023C528.048 319.481 526.066 320.3 524 320.3H251.47C249.399 320.3 247.412 319.477 245.947 318.013C244.483 316.548 243.66 314.561 243.66 312.49V38.49C243.66 36.4187 244.483 34.4321 245.947 32.9675C247.412 31.5028 249.399 30.68 251.47 30.68V30.71Z" fill="#542DED"/>
<path d="M251.67 31H524.33C526.364 31 528.315 31.8081 529.753 33.2465C531.192 34.6849 532 36.6358 532 38.67V61H244V38.67C244 36.6358 244.808 34.6849 246.246 33.2465C247.685 31.8081 249.636 31 251.67 31V31Z" fill="#542DED"/>
<path fill-rule="evenodd" clip-rule="evenodd" d="M516.18 80.53C516.18 78.4586 515.357 76.4721 513.893 75.0075C512.428 73.5428 510.441 72.72 508.37 72.72H455.61C453.539 72.72 451.552 73.5428 450.087 75.0075C448.623 76.4721 447.8 78.4586 447.8 80.53V144C447.8 146.071 448.623 148.058 450.087 149.522C451.552 150.987 453.539 151.81 455.61 151.81H508.36C510.431 151.81 512.418 150.987 513.883 149.522C515.347 148.058 516.17 146.071 516.17 144L516.18 80.53Z" fill="white"/>
<path fill-rule="evenodd" clip-rule="evenodd" d="M482 118.62C485.091 118.618 488.113 117.699 490.682 115.98C493.251 114.261 495.253 111.819 496.434 108.962C497.615 106.105 497.923 102.962 497.318 99.9309C496.713 96.8994 495.222 94.1153 493.035 91.9308C490.848 89.7464 488.062 88.2595 485.029 87.6584C481.997 87.0572 478.855 87.3688 475.999 88.5536C473.144 89.7384 470.704 91.7433 468.989 94.3147C467.273 96.8862 466.358 99.9087 466.36 103C466.361 105.053 466.767 107.085 467.554 108.981C468.34 110.876 469.493 112.599 470.945 114.049C472.397 115.5 474.121 116.65 476.018 117.434C477.915 118.218 479.947 118.621 482 118.62V118.62Z" fill="#542DED"/>
<path fill-rule="evenodd" clip-rule="evenodd" d="M460.5 122.53H503.5C503.885 122.53 504.266 122.606 504.621 122.753C504.977 122.9 505.3 123.116 505.572 123.388C505.844 123.66 506.06 123.983 506.207 124.339C506.354 124.694 506.43 125.075 506.43 125.46V125.46C506.43 126.237 506.121 126.982 505.572 127.532C505.022 128.081 504.277 128.39 503.5 128.39H460.5C459.723 128.39 458.978 128.081 458.428 127.532C457.879 126.982 457.57 126.237 457.57 125.46C457.57 125.075 457.646 124.694 457.793 124.339C457.94 123.983 458.156 123.66 458.428 123.388C458.7 123.116 459.023 122.9 459.379 122.753C459.734 122.606 460.115 122.53 460.5 122.53Z" fill="#542DED"/>
<path fill-rule="evenodd" clip-rule="evenodd" d="M468.31 132.3H495.66C496.437 132.3 497.182 132.609 497.732 133.158C498.281 133.708 498.59 134.453 498.59 135.23C498.59 136.007 498.281 136.752 497.732 137.302C497.182 137.851 496.437 138.16 495.66 138.16H468.31C467.533 138.16 466.788 137.851 466.238 137.302C465.689 136.752 465.38 136.007 465.38 135.23V135.23C465.38 134.453 465.689 133.708 466.238 133.158C466.788 132.609 467.533 132.3 468.31 132.3V132.3Z" fill="#542DED"/>
<path opacity="0.4" d="M251.67 31H524.33C526.364 31 528.315 31.8081 529.753 33.2465C531.192 34.6849 532 36.6358 532 38.67V61H244V38.67C244 36.6358 244.808 34.6849 246.246 33.2465C247.685 31.8081 249.636 31 251.67 31V31Z" fill="#000D44"/>
<path fill-rule="evenodd" clip-rule="evenodd" d="M268.07 48.29C268.843 48.29 269.599 48.0607 270.242 47.631C270.885 47.2014 271.386 46.5907 271.682 45.8763C271.978 45.1618 272.056 44.3756 271.905 43.6172C271.754 42.8587 271.382 42.162 270.835 41.6152C270.288 41.0684 269.591 40.696 268.833 40.5451C268.074 40.3942 267.288 40.4717 266.574 40.7676C265.859 41.0635 265.249 41.5647 264.819 42.2077C264.389 42.8507 264.16 43.6066 264.16 44.38C264.16 45.417 264.572 46.4115 265.305 47.1448C266.038 47.878 267.033 48.29 268.07 48.29Z" fill="white"/>
<path fill-rule="evenodd" clip-rule="evenodd" d="M258.07 48.29C258.843 48.29 259.599 48.0607 260.242 47.631C260.885 47.2014 261.386 46.5907 261.682 45.8763C261.978 45.1618 262.056 44.3756 261.905 43.6172C261.754 42.8587 261.382 42.162 260.835 41.6152C260.288 41.0684 259.591 40.696 258.833 40.5451C258.074 40.3942 257.288 40.4717 256.574 40.7676C255.859 41.0635 255.249 41.5647 254.819 42.2077C254.389 42.8507 254.16 43.6066 254.16 44.38C254.16 45.417 254.572 46.4115 255.305 47.1448C256.038 47.878 257.033 48.29 258.07 48.29Z" fill="white"/>
<path fill-rule="evenodd" clip-rule="evenodd" d="M278.07 48.29C278.843 48.29 279.599 48.0607 280.242 47.631C280.885 47.2014 281.386 46.5907 281.682 45.8763C281.978 45.1618 282.056 44.3756 281.905 43.6172C281.754 42.8587 281.382 42.162 280.835 41.6152C280.288 41.0684 279.591 40.696 278.833 40.5451C278.074 40.3942 277.288 40.4717 276.574 40.7676C275.859 41.0635 275.249 41.5647 274.819 42.2077C274.389 42.8507 274.16 43.6066 274.16 44.38C274.16 45.417 274.572 46.4115 275.305 47.1448C276.038 47.878 277.033 48.29 278.07 48.29Z" fill="white"/>
<path fill-rule="evenodd" clip-rule="evenodd" d="M455.61 159.65H508.36C510.431 159.65 512.418 160.473 513.883 161.938C515.347 163.402 516.17 165.389 516.17 167.46V296.58C516.17 298.651 515.347 300.638 513.883 302.103C512.418 303.567 510.431 304.39 508.36 304.39H455.61C453.539 304.39 451.552 303.567 450.087 302.103C448.623 300.638 447.8 298.651 447.8 296.58V167.46C447.8 165.389 448.623 163.402 450.087 161.938C451.552 160.473 453.539 159.65 455.61 159.65V159.65Z" fill="white"/>
<path fill-rule="evenodd" clip-rule="evenodd" d="M469.29 170H494.69C495.727 170 496.722 170.412 497.455 171.145C498.188 171.878 498.6 172.873 498.6 173.91V191.49C498.6 192.527 498.188 193.522 497.455 194.255C496.722 194.988 495.727 195.4 494.69 195.4H469.29C468.253 195.4 467.258 194.988 466.525 194.255C465.792 193.522 465.38 192.527 465.38 191.49V173.88C465.38 172.843 465.792 171.848 466.525 171.115C467.258 170.382 468.253 169.97 469.29 169.97V170Z" fill="#542DED"/>
<path fill-rule="evenodd" clip-rule="evenodd" d="M469.29 202H494.69C495.727 202 496.722 202.412 497.455 203.145C498.188 203.878 498.6 204.873 498.6 205.91V223.49C498.6 224.527 498.188 225.522 497.455 226.255C496.722 226.988 495.727 227.4 494.69 227.4H469.29C468.253 227.4 467.258 226.988 466.525 226.255C465.792 225.522 465.38 224.527 465.38 223.49V205.88C465.38 204.843 465.792 203.848 466.525 203.115C467.258 202.382 468.253 201.97 469.29 201.97V202Z" fill="#542DED"/>
<path fill-rule="evenodd" clip-rule="evenodd" d="M469.29 236H494.69C495.727 236 496.722 236.412 497.455 237.145C498.188 237.878 498.6 238.873 498.6 239.91V257.49C498.6 258.527 498.188 259.522 497.455 260.255C496.722 260.988 495.727 261.4 494.69 261.4H469.29C468.253 261.4 467.258 260.988 466.525 260.255C465.792 259.522 465.38 258.527 465.38 257.49V239.88C465.38 238.843 465.792 237.848 466.525 237.115C467.258 236.382 468.253 235.97 469.29 235.97V236Z" fill="#542DED"/>
<path fill-rule="evenodd" clip-rule="evenodd" d="M469.29 267H494.69C495.727 267 496.722 267.412 497.455 268.145C498.188 268.878 498.6 269.873 498.6 270.91V288.49C498.6 289.527 498.188 290.522 497.455 291.255C496.722 291.988 495.727 292.4 494.69 292.4H469.29C468.253 292.4 467.258 291.988 466.525 291.255C465.792 290.522 465.38 289.527 465.38 288.49V270.88C465.38 269.843 465.792 268.848 466.525 268.115C467.258 267.382 468.253 266.97 469.29 266.97V267Z" fill="#542DED"/>
<path fill-rule="evenodd" clip-rule="evenodd" d="M263.19 73.69H436.08C436.594 73.6887 437.104 73.7889 437.579 73.9848C438.055 74.1807 438.487 74.4685 438.851 74.8317C439.215 75.1949 439.504 75.6264 439.701 76.1014C439.899 76.5764 440 77.0857 440 77.6V115.69C440 116.727 439.588 117.722 438.855 118.455C438.122 119.188 437.127 119.6 436.09 119.6H263.19C262.153 119.6 261.158 119.188 260.425 118.455C259.692 117.722 259.28 116.727 259.28 115.69V77.6C259.28 76.563 259.692 75.5685 260.425 74.8352C261.158 74.102 262.153 73.69 263.19 73.69Z" fill="white"/>
<path fill-rule="evenodd" clip-rule="evenodd" d="M271 87.46H389.19C389.575 87.46 389.956 87.5358 390.311 87.6831C390.667 87.8303 390.99 88.0461 391.262 88.3182C391.534 88.5903 391.75 88.9133 391.897 89.2688C392.044 89.6242 392.12 90.0052 392.12 90.39V91.39C392.12 91.7748 392.044 92.1558 391.897 92.5113C391.75 92.8668 391.534 93.1898 391.262 93.4618C390.99 93.7339 390.667 93.9497 390.311 94.097C389.956 94.2442 389.575 94.32 389.19 94.32H271C270.615 94.32 270.234 94.2442 269.879 94.097C269.523 93.9497 269.2 93.7339 268.928 93.4618C268.656 93.1898 268.44 92.8668 268.293 92.5113C268.146 92.1558 268.07 91.7748 268.07 91.39V90.39C268.07 90.0052 268.146 89.6242 268.293 89.2688C268.44 88.9133 268.656 88.5903 268.928 88.3182C269.2 88.0461 269.523 87.8303 269.879 87.6831C270.234 87.5358 270.615 87.46 271 87.46Z" fill="#542DED"/>
<path fill-rule="evenodd" clip-rule="evenodd" d="M271 98.94H335.56C336.337 98.94 337.082 99.2487 337.632 99.7982C338.181 100.348 338.49 101.093 338.49 101.87V102.87C338.49 103.647 338.181 104.392 337.632 104.942C337.082 105.491 336.337 105.8 335.56 105.8H271C270.223 105.8 269.478 105.491 268.928 104.942C268.379 104.392 268.07 103.647 268.07 102.87V101.87C268.07 101.093 268.379 100.348 268.928 99.7982C269.478 99.2487 270.223 98.94 271 98.94V98.94Z" fill="#542DED"/>
<path d="M234.17 161.56H149.12C148.324 161.56 147.561 161.876 146.999 162.439C146.436 163.001 146.12 163.764 146.12 164.56V216.56C146.12 217.356 146.436 218.119 146.999 218.681C147.561 219.244 148.324 219.56 149.12 219.56H171.21L170.46 233.83L187.74 219.56H234.17C234.966 219.56 235.729 219.244 236.291 218.681C236.854 218.119 237.17 217.356 237.17 216.56V164.56C237.17 164.166 237.092 163.776 236.942 163.412C236.791 163.048 236.57 162.717 236.291 162.439C236.013 162.16 235.682 161.939 235.318 161.788C234.954 161.638 234.564 161.56 234.17 161.56Z" fill="#542DED"/>
<path d="M224.99 168.7H158.31C157.261 168.7 156.41 169.551 156.41 170.6V172.15C156.41 173.199 157.261 174.05 158.31 174.05H224.99C226.039 174.05 226.89 173.199 226.89 172.15V170.6C226.89 169.551 226.039 168.7 224.99 168.7Z" fill="white"/>
<path d="M224.99 179.11H158.31C157.261 179.11 156.41 179.961 156.41 181.01V182.56C156.41 183.609 157.261 184.46 158.31 184.46H224.99C226.039 184.46 226.89 183.609 226.89 182.56V181.01C226.89 179.961 226.039 179.11 224.99 179.11Z" fill="white"/>
<path d="M224.99 189.52H158.31C157.261 189.52 156.41 190.371 156.41 191.42V192.97C156.41 194.019 157.261 194.87 158.31 194.87H224.99C226.039 194.87 226.89 194.019 226.89 192.97V191.42C226.89 190.371 226.039 189.52 224.99 189.52Z" fill="white"/>
<path d="M189.22 201.71H175.78C173.333 201.71 171.35 203.693 171.35 206.14V209.77C171.35 212.217 173.333 214.2 175.78 214.2H189.22C191.667 214.2 193.65 212.217 193.65 209.77V206.14C193.65 203.693 191.667 201.71 189.22 201.71Z" fill="white"/>
<path d="M222.23 201.71H208.79C206.343 201.71 204.36 203.693 204.36 206.14V209.77C204.36 212.217 206.343 214.2 208.79 214.2H222.23C224.677 214.2 226.66 212.217 226.66 209.77V206.14C226.66 203.693 224.677 201.71 222.23 201.71Z" fill="white"/>
<path d="M636 169.78H578C572.56 169.78 567.344 171.941 563.497 175.787C559.651 179.634 557.49 184.85 557.49 190.29V190.29C557.49 195.73 559.651 200.946 563.497 204.793C567.344 208.639 572.56 210.8 578 210.8H619.18L634.52 224.8V210.8H636C638.693 210.8 641.36 210.269 643.849 209.239C646.337 208.208 648.598 206.697 650.503 204.793C652.407 202.888 653.918 200.627 654.949 198.139C655.98 195.65 656.51 192.983 656.51 190.29V190.29C656.51 187.597 655.98 184.93 654.949 182.441C653.918 179.953 652.407 177.692 650.503 175.787C648.598 173.883 646.337 172.372 643.849 171.341C641.36 170.311 638.693 169.78 636 169.78V169.78Z" fill="#542DED"/>
<path d="M636.02 175.78H577.99C576.609 175.78 575.49 176.899 575.49 178.28C575.49 179.661 576.609 180.78 577.99 180.78H636.02C637.401 180.78 638.52 179.661 638.52 178.28C638.52 176.899 637.401 175.78 636.02 175.78Z" fill="white"/>
<path d="M636.02 186.79H577.99C576.609 186.79 575.49 187.909 575.49 189.29C575.49 190.671 576.609 191.79 577.99 191.79H636.02C637.401 191.79 638.52 190.671 638.52 189.29C638.52 187.909 637.401 186.79 636.02 186.79Z" fill="white"/>
<path d="M636.02 197.79H577.99C576.609 197.79 575.49 198.909 575.49 200.29C575.49 201.671 576.609 202.79 577.99 202.79H636.02C637.401 202.79 638.52 201.671 638.52 200.29C638.52 198.909 637.401 197.79 636.02 197.79Z" fill="white"/>
<path opacity="0.2" d="M66.23 559.93C79.5346 559.93 90.32 558.197 90.32 556.06C90.32 553.923 79.5346 552.19 66.23 552.19C52.9255 552.19 42.14 553.923 42.14 556.06C42.14 558.197 52.9255 559.93 66.23 559.93Z" fill="#542DED"/>
<path opacity="0.2" d="M200.02 560.79C235.421 560.79 264.12 556.94 264.12 552.19C264.12 547.44 235.421 543.59 200.02 543.59C164.619 543.59 135.92 547.44 135.92 552.19C135.92 556.94 164.619 560.79 200.02 560.79Z" fill="#542DED"/>
<path d="M201.13 519.54C201.91 524.04 200.06 530.47 200.06 530.47L201.45 538.32L206.17 539.94L218 527.64C217.296 524.37 216.937 521.035 216.93 517.69L201.13 519.54Z" fill="#F5B58F"/>
<path d="M198.09 548.22C199.09 549.59 209.09 549.58 211.69 550.77C214.29 551.96 220.19 555.4 226.2 555.88C232.21 556.36 241.34 555.14 243.2 553.29C245.06 551.44 243.2 548.02 243.2 548.02C243.2 548.02 243.51 545.82 242.43 544.94C241.35 544.06 235.67 542.23 231.76 539.48C227.85 536.73 222.07 529.6 218.5 527.74C218.5 527.74 217.11 527.23 213.93 528.19C210.75 529.15 209.99 533.11 207.27 534.55C206.37 535.115 205.287 535.314 204.245 535.108C203.202 534.902 202.277 534.305 201.66 533.44C200.97 532.32 200.66 528.98 199.72 529.31C198.78 529.64 197.15 537.53 197.82 542.68C197.85 542.7 197.05 546.84 198.09 548.22Z" fill="#000D44"/>
<path d="M198.09 548.22C199.09 549.59 209.09 549.58 211.69 550.77C214.29 551.96 220.19 555.4 226.2 555.88C232.21 556.36 241.34 555.14 243.2 553.29C245.06 551.44 243.2 548.02 243.2 548.02C243.2 548.02 241.34 551.1 229.54 550.3C217.74 549.5 216.27 546.79 212.35 545.59C208.43 544.39 200.92 542.59 197.82 542.69C197.85 542.7 197.05 546.84 198.09 548.22Z" fill="#000D44"/>
<path d="M169.28 519.85C169.447 523.166 169.215 526.489 168.59 529.75L169.28 537.69L173.84 539.69L186.26 529.02C184.61 525.95 183.783 522.505 183.86 519.02L169.28 519.85Z" fill="#F5B58F"/>
<path d="M165.06 547.25C165.96 548.71 175.94 549.58 178.38 550.99C180.82 552.4 186.44 556.35 192.38 557.36C198.32 558.37 207.53 557.97 209.54 556.29C211.55 554.61 210.04 551.04 210.04 551.04C210.04 551.04 210.55 548.87 209.55 547.91C208.55 546.95 203.06 544.61 199.4 541.53C195.74 538.45 190.62 530.84 187.23 528.66C187.23 528.66 185.83 527.79 182.64 528.66C171.64 531.79 169.35 528.28 168.38 528.53C167.41 528.78 165.09 536.53 165.3 541.68C165.31 541.73 164.15 545.78 165.06 547.25Z" fill="#000D44"/>
<path d="M165.06 547.25C165.96 548.71 175.94 549.58 178.38 550.99C180.82 552.4 186.44 556.35 192.38 557.36C198.32 558.37 207.53 557.97 209.54 556.29C211.55 554.61 210.04 551.04 210.04 551.04C210.04 551.04 207.92 553.95 196.23 552.11C184.54 550.27 183.32 547.44 179.52 545.9C175.72 544.36 168.4 541.9 165.3 541.73C165.31 541.73 164.15 545.78 165.06 547.25Z" fill="#000D44"/>
<path d="M191.9 437.84C192.478 437.919 193.027 438.139 193.5 438.48C195.08 439.69 194.85 442.08 194.5 444.04C190.28 469.48 195.42 495.43 200.5 520.7C205.292 521.902 210.287 522.045 215.14 521.12C215.743 521.055 216.316 520.819 216.79 520.44C217.277 519.851 217.548 519.114 217.56 518.35C220.38 495.683 222.2 472.903 223.02 450.01C223.524 440.194 223.373 430.356 222.57 420.56C222.515 418.94 222.123 417.35 221.42 415.89C220.258 414.159 218.647 412.776 216.76 411.89C203.99 404.69 188.53 399.69 173.76 399.52C171.848 399.362 169.928 399.707 168.19 400.52C166.575 401.574 165.298 403.07 164.51 404.83C162.554 408.552 161.383 412.637 161.07 416.83C160.682 420.925 161.404 425.05 163.16 428.77C164.053 430.62 165.31 432.271 166.857 433.624C168.403 434.976 170.207 436.002 172.16 436.64C174.379 437.197 176.663 437.456 178.95 437.41L190.21 437.68C190.777 437.691 191.341 437.744 191.9 437.84V437.84Z" fill="#1B255E"/>
<path d="M113.95 396.29C110.71 403.82 109.22 416.36 112.17 422.5C114.71 427.77 116.73 430.15 120.89 433.15C127.95 438.24 138.42 440.15 157.67 439.37C158.373 439.341 159.074 439.475 159.717 439.761C160.36 440.047 160.928 440.478 161.377 441.02C161.827 441.562 162.144 442.201 162.306 442.886C162.468 443.571 162.469 444.284 162.31 444.97C156.09 470.69 166.23 504.97 168.59 522.04C171.092 523.192 173.806 523.812 176.561 523.86C179.315 523.908 182.049 523.384 184.59 522.32C187.5 484.99 196.38 422.06 189.86 410.52C187.02 405.52 178.43 403.15 173.42 401.38C168.66 399.69 160.56 395.63 155.48 396.29" fill="#1B255E"/>
<path d="M154.8 320.25C154.8 320.25 160.11 332.6 165.66 344.76C167.511 343.568 169.641 342.879 171.84 342.76C182.14 341.69 187.06 340.18 189.19 339.28C186.52 328.5 183.49 316.12 182.93 313.56C180.49 302.61 175.46 298.15 175.46 298.15L154.8 320.25Z" fill="#542DED"/>
<path d="M114.91 398.86C126.91 400.38 147.7 398.28 162.7 398.86C176.13 399.35 178.49 394.25 178.49 394.25C177.98 375.06 175.49 368.95 176.49 354.68C178.16 330.58 180.3 303.53 175.49 298.15C166.12 290.99 147.16 288.01 127.6 294.09C112.91 298.65 108.27 302.95 109.16 314C109.42 317.22 117.31 363.83 115.31 387.12C115.108 388.876 114.491 390.559 113.51 392.03C112 394.41 113.55 397.94 114.91 398.86Z" fill="#542DED"/>
<path d="M105.62 342.52C112.82 343.564 120.111 343.842 127.37 343.35C127.74 340.35 128.1 337.2 128.44 333.55C128.97 328.13 130.35 321.09 129.59 315.72C128.59 308.45 125.86 296.8 117.07 298.26C101.37 300.85 105.62 342.24 105.62 342.52Z" fill="#542DED"/>
<path d="M153.92 304.21H153.68C152.93 303.3 150.6 300.92 150.75 300.21C150.9 299.5 151.86 296.84 152.81 296.42C154.22 295.994 155.734 296.075 157.09 296.65C157.574 297.076 157.962 297.601 158.228 298.189C158.493 298.777 158.63 299.415 158.63 300.06C158.45 301.45 158.044 302.801 157.43 304.06C161.958 325.648 164.578 347.593 165.26 369.64C165.47 378.4 155.26 396.77 152.96 397.59C150.66 398.41 147.07 379.33 146.08 371.44C145.13 363.74 153.32 308.31 153.92 304.21Z" fill="white"/>
<path opacity="0.1" d="M153.92 304.21H153.68C152.93 303.3 150.6 300.92 150.75 300.21C150.9 299.5 151.86 296.84 152.81 296.42C154.22 295.994 155.734 296.075 157.09 296.65C157.574 297.076 157.962 297.601 158.228 298.189C158.493 298.777 158.63 299.415 158.63 300.06C158.45 301.45 158.044 302.801 157.43 304.06C161.958 325.648 164.578 347.593 165.26 369.64C165.47 378.4 155.26 396.77 152.96 397.59C150.66 398.41 147.07 379.33 146.08 371.44C145.13 363.74 153.32 308.31 153.92 304.21Z" fill="#542DED"/>
<path d="M108.46 343.23C108.8 351.54 108.26 364.49 113.23 371.23C120.95 381.81 180.23 386.94 180.23 386.94C180.23 386.94 182.29 387.77 183.47 382.52C183.737 381.257 183.71 379.95 183.39 378.7L148.17 365.4C140.39 362.46 134.4 362.67 128.25 359.97C128.9 353.46 129.54 348.63 130.19 343.35C122.967 344.165 115.673 344.125 108.46 343.23V343.23Z" fill="#F5B58F"/>
<path d="M172.1 254.17C172.1 254.17 174.1 259.99 171.94 263.56C171.198 264.878 170.61 266.277 170.19 267.73C169.84 268.73 168.92 269.84 166.69 270.2C161.84 270.98 166.22 255.2 166.22 255.2" fill="#000D44"/>
<path d="M154.28 283.72C154.28 283.72 154.4 285.72 154.55 287.5C154.827 288.72 155.031 289.956 155.16 291.2C155.23 292.841 155.017 294.481 154.53 296.05C153.94 297.1 152.61 295.91 151.38 296.25C139.54 299.49 137.88 291.97 137.88 291.97C139.05 287.51 136.88 276.17 136.88 276.17" fill="#F5B58F"/>
<path d="M166.76 273.81C165.85 277.52 164.1 281.17 161.08 283.5C159.436 284.689 157.564 285.524 155.581 285.954C153.599 286.385 151.549 286.4 149.56 286C146.035 285.365 142.774 283.708 140.183 281.235C137.592 278.762 135.785 275.582 134.987 272.09C134.189 268.598 134.434 264.949 135.694 261.595C136.953 258.242 139.171 255.333 142.07 253.23C147.39 249.36 160.69 246.34 166.39 250.29C172.09 254.24 168.22 267.83 166.76 273.81Z" fill="#F5B58F"/>
<path d="M155.28 233.74C153.363 233.383 151.426 233.14 149.48 233.01C147.05 232.913 144.634 233.426 142.454 234.504C140.273 235.582 138.398 237.19 137 239.18C135.398 241.503 133.36 243.493 131 245.04C128.3 246.75 126.88 250.25 126.07 254.17C124.89 259.87 129.48 272.62 130.71 274.67C131.29 275.67 136.27 284.25 137.4 285.09C139.09 284.31 136.62 278.09 137.18 275.89C137.397 272.723 138.861 269.771 141.25 267.68C144.143 265.201 146.539 262.194 148.31 258.82C148.569 258.262 149.038 257.829 149.616 257.617C150.194 257.405 150.832 257.431 151.39 257.69C155.39 259.56 162.09 259.48 165.87 258.96C170.43 258.34 174.87 254.7 175.45 249.96C175.518 249.355 175.518 248.745 175.45 248.14C175.126 245.624 173.996 243.281 172.23 241.46C170.41 239.445 168.056 237.988 165.44 237.26C165.299 237.224 165.161 237.174 165.03 237.11C161.938 235.573 158.661 234.441 155.28 233.74V233.74Z" fill="#000D44"/>
<path d="M143.06 262.71C143.042 262.456 142.973 262.209 142.858 261.982C142.743 261.756 142.584 261.554 142.39 261.39C141.52 260.66 138.94 259.39 137.18 261.94C135.63 264.18 136.12 273.5 140.05 270.66C143.14 268.4 143.18 264.33 143.06 262.71Z" fill="#F5B58F"/>
<path d="M138.19 287C136.756 288.643 135.49 290.425 134.41 292.32C136.255 293.896 138.199 295.353 140.23 296.68C143.992 298.9 147.879 300.904 151.87 302.68L154.52 296.12C154.52 296.12 143.28 290 138.19 287Z" fill="#542DED"/>
<path d="M154.52 296.05C156.387 297.617 158.065 299.395 159.52 301.35C160.24 298.386 160.184 295.287 159.36 292.35C159.36 292.35 156.61 288.11 154.58 287.44C154.55 287.5 155.31 293.47 154.52 296.05Z" fill="#542DED"/>
<path opacity="0.15" d="M138.19 287C136.756 288.643 135.49 290.425 134.41 292.32C136.255 293.896 138.199 295.353 140.23 296.68C143.992 298.9 147.879 300.904 151.87 302.68L154.52 296.12C154.52 296.12 143.28 290 138.19 287Z" fill="#000D44"/>
<path opacity="0.15" d="M154.52 296.05C156.387 297.617 158.065 299.395 159.52 301.35C160.24 298.386 160.184 295.287 159.36 292.35C159.36 292.35 156.61 288.11 154.58 287.44C154.55 287.5 155.31 293.47 154.52 296.05Z" fill="#000D44"/>
<path d="M105.62 342.51C115.85 344.14 128.62 343.15 130.84 342.95C131.65 336.24 131.54 320.04 131.54 319.87H132.4C132.4 320.04 132.51 336.87 131.65 343.41V343.75H131.31C131.22 343.75 126.19 344.27 119.76 344.27C115.048 344.297 110.34 343.993 105.67 343.36L105.62 342.51Z" fill="#542DED"/>
<path d="M105.62 342.51C115.85 344.14 128.62 343.15 130.84 342.95C131.65 336.24 131.54 320.04 131.54 319.87H132.4C132.4 320.04 132.51 336.87 131.65 343.41V343.75H131.31C131.22 343.75 126.19 344.27 119.76 344.27C115.048 344.297 110.34 343.993 105.67 343.36L105.62 342.51Z" fill="#542DED"/>
<path opacity="0.15" d="M105.62 342.51C115.85 344.14 128.62 343.15 130.84 342.95C131.65 336.24 131.54 320.04 131.54 319.87H132.4C132.4 320.04 132.51 336.87 131.65 343.41V343.75H131.31C131.22 343.75 126.19 344.27 119.76 344.27C115.048 344.297 110.34 343.993 105.67 343.36L105.62 342.51Z" fill="#000D44"/>
<path d="M177 352.91C178.335 341.063 178.826 329.136 178.47 317.22H177.61C177.966 329.09 177.478 340.97 176.15 352.77L177 352.91Z" fill="#542DED"/>
<path opacity="0.1" d="M177.64 317.26C177.996 329.13 177.508 341.01 176.18 352.81Z" fill="#000D44"/>
<path d="M140 394.06H240.54C240.686 394.061 240.829 394.012 240.943 393.921C241.058 393.83 241.138 393.703 241.17 393.56L252.75 332.81C252.771 332.715 252.77 332.617 252.748 332.523C252.727 332.429 252.684 332.34 252.623 332.265C252.563 332.189 252.487 332.128 252.399 332.085C252.312 332.043 252.217 332.021 252.12 332.02L154.12 330.3C153.973 330.301 153.83 330.352 153.716 330.445C153.601 330.537 153.522 330.666 153.49 330.81L139.34 393.28C139.316 393.377 139.315 393.478 139.338 393.575C139.361 393.672 139.406 393.763 139.47 393.839C139.535 393.915 139.617 393.975 139.709 394.013C139.801 394.052 139.901 394.068 140 394.06V394.06Z" fill="#542DED"/>
<path opacity="0.3" d="M140 394.06H240.54C240.686 394.061 240.829 394.012 240.943 393.921C241.058 393.83 241.138 393.703 241.17 393.56L252.75 332.81C252.771 332.715 252.77 332.617 252.748 332.523C252.727 332.429 252.684 332.34 252.623 332.265C252.563 332.189 252.487 332.128 252.399 332.085C252.312 332.043 252.217 332.021 252.12 332.02L154.12 330.3C153.973 330.301 153.83 330.352 153.716 330.445C153.601 330.537 153.522 330.666 153.49 330.81L139.34 393.28C139.316 393.377 139.315 393.478 139.338 393.575C139.361 393.672 139.406 393.763 139.47 393.839C139.535 393.915 139.617 393.975 139.709 394.013C139.801 394.052 139.901 394.068 140 394.06V394.06Z" fill="#000D44"/>
<path opacity="0.3" d="M144.33 393.28C144.309 393.373 144.309 393.47 144.331 393.563C144.352 393.656 144.394 393.743 144.453 393.818C144.513 393.893 144.588 393.954 144.674 393.995C144.76 394.037 144.854 394.059 144.95 394.06H240.54C240.686 394.061 240.829 394.012 240.943 393.921C241.058 393.83 241.138 393.703 241.17 393.56L252.75 332.81C252.771 332.715 252.77 332.617 252.748 332.523C252.727 332.429 252.684 332.34 252.623 332.265C252.563 332.189 252.487 332.128 252.399 332.085C252.312 332.043 252.217 332.021 252.12 332.02L159.12 330.3C158.973 330.301 158.83 330.352 158.716 330.445C158.601 330.537 158.522 330.666 158.49 330.81L144.33 393.28Z" fill="#542DED"/>
<path d="M114.87 394.07H142.71C143.201 394.07 143.671 393.875 144.018 393.528C144.365 393.181 144.56 392.711 144.56 392.22V392.22C144.56 391.729 144.365 391.259 144.018 390.912C143.671 390.565 143.201 390.37 142.71 390.37H114.87C114.379 390.37 113.909 390.565 113.562 390.912C113.215 391.259 113.02 391.729 113.02 392.22V392.22C113.02 392.711 113.215 393.181 113.562 393.528C113.909 393.875 114.379 394.07 114.87 394.07V394.07Z" fill="#542DED"/>
<path opacity="0.3" d="M114.87 394.07H142.71C143.201 394.07 143.671 393.875 144.018 393.528C144.365 393.181 144.56 392.711 144.56 392.22V392.22C144.56 391.729 144.365 391.259 144.018 390.912C143.671 390.565 143.201 390.37 142.71 390.37H114.87C114.379 390.37 113.909 390.565 113.562 390.912C113.215 391.259 113.02 391.729 113.02 392.22V392.22C113.02 392.711 113.215 393.181 113.562 393.528C113.909 393.875 114.379 394.07 114.87 394.07V394.07Z" fill="#000D44"/>
<path opacity="0.8" d="M206.61 366.57C212 366.57 216.37 363.902 216.37 360.61C216.37 357.318 212 354.65 206.61 354.65C201.22 354.65 196.85 357.318 196.85 360.61C196.85 363.902 201.22 366.57 206.61 366.57Z" fill="white"/>
<path d="M60.2 394.06H289.71C290.337 394.001 290.969 394.073 291.566 394.273C292.163 394.472 292.712 394.793 293.177 395.217C293.642 395.641 294.014 396.157 294.269 396.733C294.523 397.308 294.655 397.931 294.655 398.56C294.655 399.189 294.523 399.812 294.269 400.387C294.014 400.963 293.642 401.479 293.177 401.903C292.712 402.327 292.163 402.648 291.566 402.848C290.969 403.047 290.337 403.119 289.71 403.06H263.71L265.09 411.31L289.09 554.6C289.129 554.829 289.118 555.063 289.057 555.287C288.997 555.511 288.888 555.718 288.738 555.896C288.589 556.073 288.402 556.215 288.192 556.313C287.981 556.41 287.752 556.46 287.52 556.46H282.72C282.366 556.46 282.023 556.342 281.744 556.124C281.465 555.907 281.267 555.603 281.18 555.26L244.08 411.34L242 403.1H111.25L109.13 411.35L72 555.29C71.9133 555.633 71.7148 555.937 71.4359 556.154C71.1569 556.372 70.8136 556.49 70.46 556.49H65.66C65.4281 556.49 65.1989 556.44 64.9884 556.343C64.778 556.245 64.5915 556.103 64.4419 555.926C64.2923 555.748 64.1833 555.541 64.1225 555.317C64.0617 555.093 64.0506 554.859 64.09 554.63L88.09 411.34L89.47 403.09H60.2C59.5734 403.149 58.9413 403.077 58.3443 402.878C57.7473 402.678 57.1985 402.357 56.733 401.933C56.2675 401.509 55.8956 400.993 55.6412 400.417C55.3867 399.842 55.2552 399.219 55.2552 398.59C55.2552 397.961 55.3867 397.338 55.6412 396.763C55.8956 396.187 56.2675 395.671 56.733 395.247C57.1985 394.823 57.7473 394.502 58.3443 394.302C58.9413 394.103 59.5734 394.031 60.2 394.09V394.06Z" fill="white"/>
<path opacity="0.3" d="M60.2 394.06H289.71C290.337 394.001 290.969 394.073 291.566 394.273C292.163 394.472 292.712 394.793 293.177 395.217C293.642 395.641 294.014 396.157 294.269 396.733C294.523 397.308 294.655 397.931 294.655 398.56C294.655 399.189 294.523 399.812 294.269 400.387C294.014 400.963 293.642 401.479 293.177 401.903C292.712 402.327 292.163 402.648 291.566 402.848C290.969 403.047 290.337 403.119 289.71 403.06H263.71L265.09 411.31L289.09 554.6C289.129 554.829 289.118 555.063 289.057 555.287C288.997 555.511 288.888 555.718 288.738 555.896C288.589 556.073 288.402 556.215 288.192 556.313C287.981 556.41 287.752 556.46 287.52 556.46H282.72C282.366 556.46 282.023 556.342 281.744 556.124C281.465 555.907 281.267 555.603 281.18 555.26L244.08 411.34L242 403.1H111.25L109.13 411.35L72 555.29C71.9133 555.633 71.7148 555.937 71.4359 556.154C71.1569 556.372 70.8136 556.49 70.46 556.49H65.66C65.4281 556.49 65.1989 556.44 64.9884 556.343C64.778 556.245 64.5915 556.103 64.4419 555.926C64.2923 555.748 64.1833 555.541 64.1225 555.317C64.0617 555.093 64.0506 554.859 64.09 554.63L88.09 411.34L89.47 403.09H60.2C59.5734 403.149 58.9413 403.077 58.3443 402.878C57.7473 402.678 57.1985 402.357 56.733 401.933C56.2675 401.509 55.8956 400.993 55.6412 400.417C55.3867 399.842 55.2552 399.219 55.2552 398.59C55.2552 397.961 55.3867 397.338 55.6412 396.763C55.8956 396.187 56.2675 395.671 56.733 395.247C57.1985 394.823 57.7473 394.502 58.3443 394.302C58.9413 394.103 59.5734 394.031 60.2 394.09V394.06Z" fill="#542DED"/>
<path opacity="0.15" d="M604.63 569.28C689.251 569.28 757.85 567.937 757.85 566.28C757.85 564.623 689.251 563.28 604.63 563.28C520.009 563.28 451.41 564.623 451.41 566.28C451.41 567.937 520.009 569.28 604.63 569.28Z" fill="#542DED"/>
<path d="M615.41 305.12C613.172 305.072 610.952 305.542 608.926 306.495C606.9 307.447 605.121 308.856 603.73 310.61C600.321 314.848 597.782 319.718 596.26 324.94C592.5 337.64 586.38 353.16 586.38 353.16C586.38 353.16 548.3 356.45 523.84 364C523.84 364 525.25 369.64 527.6 377.17C527.6 377.17 589.21 378.11 600.02 375.76C611.31 372.94 625.89 326.38 625.89 326.38C625.89 326.38 629.86 305.65 615.41 305.12Z" fill="#542DED"/>
<path opacity="0.13" d="M615.41 305.12C613.172 305.072 610.952 305.542 608.926 306.495C606.9 307.447 605.121 308.856 603.73 310.61C600.321 314.848 597.782 319.718 596.26 324.94C592.5 337.64 586.38 353.16 586.38 353.16C586.38 353.16 548.3 356.45 523.84 364C523.84 364 525.25 369.64 527.6 377.17C527.6 377.17 589.21 378.11 600.02 375.76C611.31 372.94 625.89 326.38 625.89 326.38C625.89 326.38 629.86 305.65 615.41 305.12Z" fill="#000D44"/>
<path d="M695.25 352.26H658.77C653.616 352.26 648.582 353.816 644.326 356.725C640.071 359.633 636.792 363.758 634.92 368.56L602.44 451.83C602.272 452.237 602.081 452.634 601.87 453.02H559.28C558.396 453.02 557.547 453.371 556.922 453.997C556.296 454.622 555.945 455.471 555.945 456.355C555.945 457.24 556.296 458.088 556.922 458.713C557.547 459.339 558.396 459.69 559.28 459.69H610.59V558.4H575.53V563.87H653.43V558.4H618.37V459.68H661.8C664.283 459.681 666.708 458.931 668.758 457.531C670.808 456.13 672.388 454.143 673.29 451.83L706 368C706.686 366.251 706.934 364.36 706.723 362.493C706.512 360.626 705.847 358.839 704.787 357.287C703.728 355.736 702.305 354.466 700.642 353.59C698.98 352.714 697.129 352.257 695.25 352.26V352.26Z" fill="white"/>
<path opacity="0.3" d="M695.25 352.26H658.77C653.616 352.26 648.582 353.816 644.326 356.725C640.071 359.633 636.792 363.758 634.92 368.56L602.44 451.83C602.272 452.237 602.081 452.634 601.87 453.02H559.28C558.396 453.02 557.547 453.371 556.922 453.997C556.296 454.622 555.945 455.471 555.945 456.355C555.945 457.24 556.296 458.088 556.922 458.713C557.547 459.339 558.396 459.69 559.28 459.69H610.59V558.4H575.53V563.87H653.43V558.4H618.37V459.68H661.8C664.283 459.681 666.708 458.931 668.758 457.531C670.808 456.13 672.388 454.143 673.29 451.83L706 368C706.686 366.251 706.934 364.36 706.723 362.493C706.512 360.626 705.847 358.839 704.787 357.287C703.728 355.736 702.305 354.466 700.642 353.59C698.98 352.714 697.129 352.257 695.25 352.26V352.26Z" fill="#542DED"/>
<path d="M530.34 539.6C530.34 539.6 532.78 559.39 532.78 561.34H496.14C496.14 561.34 487.14 561.34 499.8 553.77C505.65 550.29 513.73 550.35 516.17 545.46C517.463 543.071 518.447 540.527 519.1 537.89L530.34 539.6Z" fill="#000D44"/>
<path d="M591.52 562.76H618.6C618.47 554.2 613.84 537.11 613.84 537.11L603.21 539.68C603.434 541.863 603.193 544.069 602.503 546.153C601.814 548.237 600.692 550.151 599.21 551.77C595.36 556.15 592.35 560.52 591.52 562.76Z" fill="#000D44"/>
<path d="M604.65 406.35C604.65 406.35 569.89 413.18 540.15 425.71C537.251 426.93 534.697 428.846 532.714 431.288C530.731 433.729 529.38 436.622 528.78 439.71C524.85 459.84 516.45 506.95 517.04 539.71H531.51L558.17 450.19C558.17 450.19 568.07 454.38 600.83 450.57C633.59 446.76 640.45 423.91 640.45 423.91L604.65 406.35Z" fill="#1B255E"/>
<path d="M663.88 399.3C663.88 399.3 671.88 435.3 654.17 446.15C636.46 457 606.17 451.29 606.17 451.29L617.6 540.43L599.89 541C599.89 541 579.82 473.46 573.62 442.74C572.851 438.93 573.352 434.973 575.046 431.475C576.741 427.976 579.534 425.13 583 423.37L613.57 407.88L663.88 399.3Z" fill="#1B255E"/>
<path d="M645.76 295.32C645.76 295.32 663.04 302.37 667.28 310.13C671.51 318.6 670.45 394.43 669.4 406.77C666.93 416.29 609.09 414.18 594.62 407.83C589.33 403.95 605.91 315.77 609.08 308.72C612.25 301.67 622.13 298.84 622.13 298.84L645.76 295.32Z" fill="#542DED"/>
<path d="M626.17 279.31C626.17 279.31 624.74 289.88 621.6 297.59C621.6 297.59 620.74 303.59 633.31 301.02C645.88 298.45 644.17 292.16 644.17 292.16V267.32L626.17 279.31Z" fill="#EFAB89"/>
<path d="M610.52 256.81C610.52 256.81 610.61 271.87 614.1 283.74C614.568 285.342 615.376 286.824 616.468 288.085C617.561 289.347 618.912 290.358 620.43 291.051C621.948 291.743 623.597 292.101 625.266 292.099C626.935 292.097 628.583 291.736 630.1 291.04C635.867 288.33 640.824 284.159 644.48 278.94C651.12 268.78 650.99 253.49 645.74 244.94C640.49 236.39 623.17 238.94 618.1 241.94C613.03 244.94 610.24 253 610.52 256.81Z" fill="#F5B58F"/>
<path d="M642.42 270.16C642.42 270.16 646.88 263.29 649.86 267.38C652.84 271.47 642.52 279.83 641.73 276.65C641.318 274.466 641.558 272.209 642.42 270.16V270.16Z" fill="#F5B58F"/>
<path d="M610.52 256.81C610.52 256.81 602.23 249.52 612.23 240.09C617.94 235.8 620.8 238.95 626.8 237.8C632.8 236.65 643.66 237.8 647.66 244.09C651.66 250.38 650.23 264.95 649.09 266.37C647.95 267.79 644.52 268.66 644.52 271.23C644.52 273.8 643.95 275.8 643.09 275.8C642.23 275.8 642.23 271.51 642.23 268.37C642.186 263.823 641.513 259.303 640.23 254.94C638.8 250.65 632.23 250.94 629.66 251.51C627.09 252.08 625.39 258.67 610.52 256.81Z" fill="#000D44"/>
<path opacity="0.53" d="M639.65 260.28C639.65 260.28 639.84 260.19 640.12 260.07L639.65 260.28Z" fill="#505E83"/>
<path d="M644.18 290.38C644.18 290.38 637.3 299 626 300.08C623.71 299.2 622.47 294.97 622.47 294.97L622.07 295.57C621.099 297.027 620.448 298.673 620.16 300.4C619.8 302.57 619.47 305.4 619.98 306.66C621.04 306.84 626.18 301.03 626.18 301.03C626.18 301.03 628.29 306.26 630.18 306.97C632.07 307.68 644.46 299.39 645.7 295.33C645.637 293.575 645.112 291.868 644.18 290.38V290.38Z" fill="#542DED"/>
<path opacity="0.25" d="M644.18 290.38C644.18 290.38 637.3 299 626 300.08C623.71 299.2 622.47 294.97 622.47 294.97L622.07 295.57C621.099 297.027 620.448 298.673 620.16 300.4C619.8 302.57 619.47 305.4 619.98 306.66C621.04 306.84 626.18 301.03 626.18 301.03C626.18 301.03 628.29 306.26 630.18 306.97C632.07 307.68 644.46 299.39 645.7 295.33C645.637 293.575 645.112 291.868 644.18 290.38V290.38Z" fill="#000D44"/>
<path d="M572.27 365.21C572.27 365.21 563.89 362.92 559.89 361.97C555.89 361.02 545.42 372.06 545.22 374.16C546.55 375.68 571.12 374.54 571.12 374.54L573.02 372.06L572.27 365.21Z" fill="#F5B58F"/>
<path d="M571.73 364.93C571.73 364.93 628.16 347.93 636.73 355.84C645.3 363.75 637.42 376.84 624.8 377.98C612.18 379.12 572.17 372.8 572.17 372.8L571.73 364.93Z" fill="#F5B58F"/>
<path d="M578.4 361.63C578.4 361.63 578.4 371.15 580.52 373.98C586.16 375.04 657.76 379.27 663.76 372.92C669.76 366.57 671.87 316.13 667.29 310.14C660.59 304.5 653.53 304.85 650.01 311.2C646.49 317.55 640.84 352.82 640.84 352.82C640.84 352.82 618.61 349.63 578.4 361.63Z" fill="#542DED"/>
<path opacity="0.07" d="M578.4 361.63C578.4 361.63 578.4 371.15 580.52 373.98C586.16 375.04 657.76 379.27 663.76 372.92C669.76 366.57 671.87 316.13 667.29 310.14C660.59 304.5 653.53 304.85 650.01 311.2C646.49 317.55 640.84 352.82 640.84 352.82C640.84 352.82 618.61 349.63 578.4 361.63Z" fill="#000D44"/>
<path d="M560 373.07H484.39C483.767 373.069 483.164 372.848 482.688 372.445C482.212 372.043 481.894 371.485 481.79 370.87L474.66 328.1C474.598 327.722 474.618 327.336 474.72 326.967C474.822 326.598 475.003 326.256 475.25 325.964C475.497 325.672 475.805 325.437 476.152 325.276C476.499 325.115 476.877 325.031 477.26 325.03H552.87C553.493 325.031 554.096 325.252 554.572 325.655C555.048 326.057 555.366 326.615 555.47 327.23L562.61 370C562.672 370.378 562.652 370.766 562.549 371.135C562.447 371.505 562.265 371.848 562.017 372.14C561.768 372.432 561.459 372.667 561.111 372.827C560.763 372.988 560.384 373.071 560 373.07V373.07Z" fill="#542DED"/>
<path opacity="0.4" d="M560 373.07H484.39C483.767 373.069 483.164 372.848 482.688 372.445C482.212 372.043 481.894 371.485 481.79 370.87L474.66 328.1C474.598 327.722 474.618 327.336 474.72 326.967C474.822 326.598 475.003 326.256 475.25 325.964C475.497 325.672 475.805 325.437 476.152 325.276C476.499 325.115 476.877 325.031 477.26 325.03H552.87C553.493 325.031 554.096 325.252 554.572 325.655C555.048 326.057 555.366 326.615 555.47 327.23L562.61 370C562.672 370.378 562.652 370.766 562.549 371.135C562.447 371.505 562.265 371.848 562.017 372.14C561.768 372.432 561.459 372.667 561.111 372.827C560.763 372.988 560.384 373.071 560 373.07V373.07Z" fill="#000D44"/>
<path d="M523.14 351.75C523.296 352.626 523.255 353.526 523.021 354.384C522.786 355.243 522.363 356.038 521.783 356.713C521.203 357.388 520.48 357.925 519.667 358.286C518.853 358.647 517.97 358.823 517.08 358.8C515.136 358.734 513.275 357.995 511.816 356.709C510.357 355.423 509.39 353.67 509.08 351.75C508.924 350.874 508.965 349.974 509.2 349.116C509.434 348.257 509.857 347.462 510.437 346.787C511.017 346.112 511.74 345.575 512.553 345.214C513.367 344.853 514.25 344.677 515.14 344.7C517.084 344.766 518.945 345.505 520.404 346.791C521.863 348.077 522.83 349.83 523.14 351.75V351.75Z" fill="white"/>
<path d="M456.81 373.31H710.81C712.136 373.31 713.408 373.837 714.346 374.774C715.283 375.712 715.81 376.984 715.81 378.31C715.81 379.636 715.283 380.908 714.346 381.846C713.408 382.783 712.136 383.31 710.81 383.31H682L683.53 392.44L713.72 564.3C713.762 564.552 713.749 564.811 713.681 565.058C713.613 565.305 713.492 565.534 713.326 565.729C713.16 565.924 712.954 566.081 712.721 566.188C712.489 566.295 712.236 566.351 711.98 566.35H706.67C706.282 566.341 705.907 566.203 705.605 565.959C705.303 565.715 705.09 565.378 705 565L660.3 392.41L657.95 383.28H513.29L510.94 392.41L467.45 565C467.353 565.377 467.133 565.711 466.825 565.95C466.518 566.189 466.139 566.319 465.75 566.32H460.44C460.184 566.321 459.931 566.265 459.698 566.158C459.466 566.051 459.26 565.894 459.094 565.699C458.928 565.504 458.807 565.275 458.739 565.028C458.671 564.781 458.658 564.523 458.7 564.27L487.7 392.41L489.23 383.28H456.81C455.484 383.28 454.212 382.753 453.274 381.816C452.337 380.878 451.81 379.606 451.81 378.28C451.81 376.954 452.337 375.682 453.274 374.744C454.212 373.807 455.484 373.28 456.81 373.28V373.31Z" fill="white"/>
<path opacity="0.6" d="M456.81 373.31H710.81C712.136 373.31 713.408 373.837 714.346 374.774C715.283 375.712 715.81 376.984 715.81 378.31C715.81 379.636 715.283 380.908 714.346 381.846C713.408 382.783 712.136 383.31 710.81 383.31H682L683.53 392.44L713.72 564.3C713.762 564.552 713.749 564.811 713.681 565.058C713.613 565.305 713.492 565.534 713.326 565.729C713.16 565.924 712.954 566.081 712.721 566.188C712.489 566.295 712.236 566.351 711.98 566.35H706.67C706.282 566.341 705.907 566.203 705.605 565.959C705.303 565.715 705.09 565.378 705 565L660.3 392.41L657.95 383.28H513.29L510.94 392.41L467.45 565C467.353 565.377 467.133 565.711 466.825 565.95C466.518 566.189 466.139 566.319 465.75 566.32H460.44C460.184 566.321 459.931 566.265 459.698 566.158C459.466 566.051 459.26 565.894 459.094 565.699C458.928 565.504 458.807 565.275 458.739 565.028C458.671 564.781 458.658 564.523 458.7 564.27L487.7 392.41L489.23 383.28H456.81C455.484 383.28 454.212 382.753 453.274 381.816C452.337 380.878 451.81 379.606 451.81 378.28C451.81 376.954 452.337 375.682 453.274 374.744C454.212 373.807 455.484 373.28 456.81 373.28V373.31Z" fill="#542DED"/>
<path d="M422.5 108C427.194 108 431 104.194 431 99.5C431 94.8056 427.194 91 422.5 91C417.806 91 414 94.8056 414 99.5C414 104.194 417.806 108 422.5 108Z" fill="#542DED"/>
<path fill-rule="evenodd" clip-rule="evenodd" d="M263.19 126.69H436.08C436.594 126.689 437.104 126.789 437.579 126.985C438.055 127.181 438.487 127.468 438.851 127.832C439.215 128.195 439.504 128.626 439.701 129.101C439.899 129.576 440 130.086 440 130.6V168.69C440 169.727 439.588 170.722 438.855 171.455C438.122 172.188 437.127 172.6 436.09 172.6H263.19C262.153 172.6 261.158 172.188 260.425 171.455C259.692 170.722 259.28 169.727 259.28 168.69V130.6C259.28 129.563 259.692 128.568 260.425 127.835C261.158 127.102 262.153 126.69 263.19 126.69Z" fill="white"/>
<path fill-rule="evenodd" clip-rule="evenodd" d="M271 140.46H389.19C389.967 140.46 390.712 140.769 391.262 141.318C391.811 141.868 392.12 142.613 392.12 143.39V144.39C392.12 144.775 392.044 145.156 391.897 145.511C391.75 145.867 391.534 146.19 391.262 146.462C390.99 146.734 390.667 146.95 390.311 147.097C389.956 147.244 389.575 147.32 389.19 147.32H271C270.615 147.32 270.234 147.244 269.879 147.097C269.523 146.95 269.2 146.734 268.928 146.462C268.656 146.19 268.44 145.867 268.293 145.511C268.146 145.156 268.07 144.775 268.07 144.39V143.39C268.07 142.613 268.379 141.868 268.928 141.318C269.478 140.769 270.223 140.46 271 140.46V140.46Z" fill="#542DED"/>
<path fill-rule="evenodd" clip-rule="evenodd" d="M271 151.94H335.56C335.945 151.94 336.326 152.016 336.681 152.163C337.037 152.31 337.36 152.526 337.632 152.798C337.904 153.07 338.12 153.393 338.267 153.749C338.414 154.104 338.49 154.485 338.49 154.87V155.87C338.49 156.647 338.181 157.392 337.632 157.942C337.082 158.491 336.337 158.8 335.56 158.8H271C270.223 158.8 269.478 158.491 268.928 157.942C268.379 157.392 268.07 156.647 268.07 155.87V154.87C268.07 154.485 268.146 154.104 268.293 153.749C268.44 153.393 268.656 153.07 268.928 152.798C269.2 152.526 269.523 152.31 269.879 152.163C270.234 152.016 270.615 151.94 271 151.94V151.94Z" fill="#542DED"/>
<path d="M422.5 161C427.194 161 431 157.194 431 152.5C431 147.806 427.194 144 422.5 144C417.806 144 414 147.806 414 152.5C414 157.194 417.806 161 422.5 161Z" fill="#542DED"/>
<path fill-rule="evenodd" clip-rule="evenodd" d="M263.19 181.69H436.08C436.594 181.689 437.104 181.789 437.579 181.985C438.055 182.181 438.487 182.468 438.851 182.832C439.215 183.195 439.504 183.626 439.701 184.101C439.899 184.576 440 185.086 440 185.6V223.69C440 224.727 439.588 225.722 438.855 226.455C438.122 227.188 437.127 227.6 436.09 227.6H263.19C262.153 227.6 261.158 227.188 260.425 226.455C259.692 225.722 259.28 224.727 259.28 223.69V185.6C259.28 184.563 259.692 183.568 260.425 182.835C261.158 182.102 262.153 181.69 263.19 181.69Z" fill="white"/>
<path fill-rule="evenodd" clip-rule="evenodd" d="M271 195.46H389.19C389.967 195.46 390.712 195.769 391.262 196.318C391.811 196.868 392.12 197.613 392.12 198.39V199.39C392.12 200.167 391.811 200.912 391.262 201.462C390.712 202.011 389.967 202.32 389.19 202.32H271C270.223 202.32 269.478 202.011 268.928 201.462C268.379 200.912 268.07 200.167 268.07 199.39V198.39C268.07 197.613 268.379 196.868 268.928 196.318C269.478 195.769 270.223 195.46 271 195.46V195.46Z" fill="#542DED"/>
<path fill-rule="evenodd" clip-rule="evenodd" d="M271 206.94H335.56C336.337 206.94 337.082 207.249 337.632 207.798C338.181 208.348 338.49 209.093 338.49 209.87V210.87C338.49 211.647 338.181 212.392 337.632 212.942C337.082 213.491 336.337 213.8 335.56 213.8H271C270.223 213.8 269.478 213.491 268.928 212.942C268.379 212.392 268.07 211.647 268.07 210.87V209.87C268.07 209.093 268.379 208.348 268.928 207.798C269.478 207.249 270.223 206.94 271 206.94V206.94Z" fill="#542DED"/>
<path d="M422.5 216C427.194 216 431 212.194 431 207.5C431 202.806 427.194 199 422.5 199C417.806 199 414 202.806 414 207.5C414 212.194 417.806 216 422.5 216Z" fill="#542DED"/>
<path fill-rule="evenodd" clip-rule="evenodd" d="M263.19 241.69H436.08C436.594 241.689 437.104 241.789 437.579 241.985C438.055 242.181 438.487 242.468 438.851 242.832C439.215 243.195 439.504 243.626 439.701 244.101C439.899 244.576 440 245.086 440 245.6V283.69C440 284.727 439.588 285.722 438.855 286.455C438.122 287.188 437.127 287.6 436.09 287.6H263.19C262.153 287.6 261.158 287.188 260.425 286.455C259.692 285.722 259.28 284.727 259.28 283.69V245.6C259.28 244.563 259.692 243.568 260.425 242.835C261.158 242.102 262.153 241.69 263.19 241.69Z" fill="white"/>
<path fill-rule="evenodd" clip-rule="evenodd" d="M271 255.46H389.19C389.967 255.46 390.712 255.769 391.262 256.318C391.811 256.868 392.12 257.613 392.12 258.39V259.39C392.12 260.167 391.811 260.912 391.262 261.462C390.712 262.011 389.967 262.32 389.19 262.32H271C270.223 262.32 269.478 262.011 268.928 261.462C268.379 260.912 268.07 260.167 268.07 259.39V258.39C268.07 257.613 268.379 256.868 268.928 256.318C269.478 255.769 270.223 255.46 271 255.46Z" fill="#542DED"/>
<path fill-rule="evenodd" clip-rule="evenodd" d="M271 266.94H335.56C336.337 266.94 337.082 267.249 337.632 267.798C338.181 268.348 338.49 269.093 338.49 269.87V270.87C338.49 271.647 338.181 272.392 337.632 272.942C337.082 273.491 336.337 273.8 335.56 273.8H271C270.223 273.8 269.478 273.491 268.928 272.942C268.379 272.392 268.07 271.647 268.07 270.87V269.87C268.07 269.093 268.379 268.348 268.928 267.798C269.478 267.249 270.223 266.94 271 266.94Z" fill="#542DED"/>
<path d="M422.5 276C427.194 276 431 272.194 431 267.5C431 262.806 427.194 259 422.5 259C417.806 259 414 262.806 414 267.5C414 272.194 417.806 276 422.5 276Z" fill="#542DED"/>
</svg>
